<mxfile host="app.diagrams.net" modified="2021-08-17T05:18:37.779Z" agent="5.0 (Macintosh; Intel Mac OS X 10_15_7) AppleWebKit/537.36 (KHTML, like Gecko) Chrome/92.0.4515.131 Safari/537.36" etag="AqUVA58RdR6aMAlcc2rq" version="14.9.6" type="github">
  <diagram id="2jVplulDgXepH_xoGk73" name="Page-1">
    <mxGraphModel dx="1038" dy="585" grid="1" gridSize="10" guides="1" tooltips="1" connect="1" arrows="1" fold="1" page="1" pageScale="1" pageWidth="827" pageHeight="1169" math="0" shadow="0">
      <root>
        <mxCell id="0" />
        <mxCell id="1" parent="0" />
        <mxCell id="boVsB5EDwnH805TPusPQ-2" value="" style="whiteSpace=wrap;html=1;aspect=fixed;" vertex="1" parent="1">
          <mxGeometry x="20" y="30" width="470" height="470" as="geometry" />
        </mxCell>
        <mxCell id="boVsB5EDwnH805TPusPQ-3" value="WebView初始化" style="text;html=1;strokeColor=none;fillColor=none;align=center;verticalAlign=middle;whiteSpace=wrap;rounded=0;" vertex="1" parent="1">
          <mxGeometry x="30" y="50" width="90" height="10" as="geometry" />
        </mxCell>
        <mxCell id="boVsB5EDwnH805TPusPQ-4" value="&lt;div style=&quot;text-align: left&quot;&gt;&lt;font color=&quot;#383a42&quot; face=&quot;source code pro, dejavu sans mono, ubuntu mono, anonymous pro, droid sans mono, menlo, monaco, consolas, inconsolata, courier, monospace, pingfang sc, microsoft yahei, sans-serif&quot;&gt;&lt;span style=&quot;font-size: 14px ; background-color: rgb(250 , 250 , 250)&quot;&gt;线程检查&lt;/span&gt;&lt;/font&gt;&lt;/div&gt;" style="rounded=1;whiteSpace=wrap;html=1;" vertex="1" parent="1">
          <mxGeometry x="60" y="80" width="140" height="30" as="geometry" />
        </mxCell>
        <mxCell id="boVsB5EDwnH805TPusPQ-5" value="&lt;div style=&quot;text-align: left&quot;&gt;创建WebviewProvider&lt;/div&gt;" style="rounded=1;whiteSpace=wrap;html=1;" vertex="1" parent="1">
          <mxGeometry x="60" y="130" width="140" height="30" as="geometry" />
        </mxCell>
        <mxCell id="boVsB5EDwnH805TPusPQ-6" value="" style="endArrow=classic;html=1;exitX=0.5;exitY=1;exitDx=0;exitDy=0;entryX=0.5;entryY=0;entryDx=0;entryDy=0;" edge="1" parent="1" source="boVsB5EDwnH805TPusPQ-4" target="boVsB5EDwnH805TPusPQ-5">
          <mxGeometry width="50" height="50" relative="1" as="geometry">
            <mxPoint x="430" y="300" as="sourcePoint" />
            <mxPoint x="480" y="250" as="targetPoint" />
          </mxGeometry>
        </mxCell>
        <mxCell id="boVsB5EDwnH805TPusPQ-7" value="&lt;div style=&quot;text-align: left&quot;&gt;初始化WebViewProvider&lt;/div&gt;" style="rounded=1;whiteSpace=wrap;html=1;" vertex="1" parent="1">
          <mxGeometry x="60" y="180" width="140" height="30" as="geometry" />
        </mxCell>
        <mxCell id="boVsB5EDwnH805TPusPQ-10" value="" style="endArrow=classic;html=1;exitX=0.5;exitY=1;exitDx=0;exitDy=0;" edge="1" parent="1" source="boVsB5EDwnH805TPusPQ-5" target="boVsB5EDwnH805TPusPQ-7">
          <mxGeometry width="50" height="50" relative="1" as="geometry">
            <mxPoint x="180" y="290" as="sourcePoint" />
            <mxPoint x="230" y="240" as="targetPoint" />
          </mxGeometry>
        </mxCell>
        <mxCell id="boVsB5EDwnH805TPusPQ-11" value="WebView" style="shape=umlLifeline;perimeter=lifelinePerimeter;whiteSpace=wrap;html=1;container=1;collapsible=0;recursiveResize=0;outlineConnect=0;" vertex="1" parent="1">
          <mxGeometry x="540" y="40" width="100" height="300" as="geometry" />
        </mxCell>
        <mxCell id="boVsB5EDwnH805TPusPQ-19" value="&lt;span style=&quot;color: rgb(64 , 120 , 242) ; font-family: &amp;#34;source code pro&amp;#34; , &amp;#34;dejavu sans mono&amp;#34; , &amp;#34;ubuntu mono&amp;#34; , &amp;#34;anonymous pro&amp;#34; , &amp;#34;droid sans mono&amp;#34; , &amp;#34;menlo&amp;#34; , &amp;#34;monaco&amp;#34; , &amp;#34;consolas&amp;#34; , &amp;#34;inconsolata&amp;#34; , &amp;#34;courier&amp;#34; , monospace , &amp;#34;pingfang sc&amp;#34; , &amp;#34;microsoft yahei&amp;#34; , sans-serif ; font-size: 14px ; text-align: left ; background-color: rgb(250 , 250 , 250)&quot;&gt;getFactory&lt;/span&gt;" style="html=1;verticalAlign=bottom;endArrow=block;" edge="1" parent="boVsB5EDwnH805TPusPQ-11">
          <mxGeometry width="80" relative="1" as="geometry">
            <mxPoint x="50" y="80" as="sourcePoint" />
            <mxPoint x="220" y="80" as="targetPoint" />
          </mxGeometry>
        </mxCell>
        <mxCell id="boVsB5EDwnH805TPusPQ-18" value="&lt;span style=&quot;color: rgb(56 , 58 , 66) ; font-family: &amp;#34;source code pro&amp;#34; , &amp;#34;dejavu sans mono&amp;#34; , &amp;#34;ubuntu mono&amp;#34; , &amp;#34;anonymous pro&amp;#34; , &amp;#34;droid sans mono&amp;#34; , &amp;#34;menlo&amp;#34; , &amp;#34;monaco&amp;#34; , &amp;#34;consolas&amp;#34; , &amp;#34;inconsolata&amp;#34; , &amp;#34;courier&amp;#34; , monospace , &amp;#34;pingfang sc&amp;#34; , &amp;#34;microsoft yahei&amp;#34; , sans-serif ; font-size: 14px ; text-align: left ; background-color: rgb(250 , 250 , 250)&quot;&gt;WebViewFactory&lt;/span&gt;" style="shape=umlLifeline;perimeter=lifelinePerimeter;whiteSpace=wrap;html=1;container=1;collapsible=0;recursiveResize=0;outlineConnect=0;" vertex="1" parent="1">
          <mxGeometry x="670" y="40" width="190" height="290" as="geometry" />
        </mxCell>
        <mxCell id="boVsB5EDwnH805TPusPQ-22" value="" style="html=1;points=[];perimeter=orthogonalPerimeter;" vertex="1" parent="boVsB5EDwnH805TPusPQ-18">
          <mxGeometry x="85" y="110" width="10" height="40" as="geometry" />
        </mxCell>
        <mxCell id="boVsB5EDwnH805TPusPQ-23" value="&lt;span style=&quot;color: rgb(56 , 58 , 66) ; font-family: &amp;#34;source code pro&amp;#34; , &amp;#34;dejavu sans mono&amp;#34; , &amp;#34;ubuntu mono&amp;#34; , &amp;#34;anonymous pro&amp;#34; , &amp;#34;droid sans mono&amp;#34; , &amp;#34;menlo&amp;#34; , &amp;#34;monaco&amp;#34; , &amp;#34;consolas&amp;#34; , &amp;#34;inconsolata&amp;#34; , &amp;#34;courier&amp;#34; , monospace , &amp;#34;pingfang sc&amp;#34; , &amp;#34;microsoft yahei&amp;#34; , sans-serif ; font-size: 14px ; background-color: rgb(250 , 250 , 250)&quot;&gt;getProvider&lt;/span&gt;" style="edgeStyle=orthogonalEdgeStyle;html=1;align=left;spacingLeft=2;endArrow=block;rounded=0;entryX=1;entryY=0;" edge="1" target="boVsB5EDwnH805TPusPQ-22" parent="boVsB5EDwnH805TPusPQ-18">
          <mxGeometry relative="1" as="geometry">
            <mxPoint x="90" y="90" as="sourcePoint" />
            <Array as="points">
              <mxPoint x="120" y="90" />
            </Array>
          </mxGeometry>
        </mxCell>
        <mxCell id="boVsB5EDwnH805TPusPQ-24" value="" style="html=1;points=[];perimeter=orthogonalPerimeter;" vertex="1" parent="boVsB5EDwnH805TPusPQ-18">
          <mxGeometry x="90" y="140" width="10" height="40" as="geometry" />
        </mxCell>
        <mxCell id="boVsB5EDwnH805TPusPQ-25" value="&lt;span style=&quot;color: rgb(56 , 58 , 66) ; font-family: &amp;#34;source code pro&amp;#34; , &amp;#34;dejavu sans mono&amp;#34; , &amp;#34;ubuntu mono&amp;#34; , &amp;#34;anonymous pro&amp;#34; , &amp;#34;droid sans mono&amp;#34; , &amp;#34;menlo&amp;#34; , &amp;#34;monaco&amp;#34; , &amp;#34;consolas&amp;#34; , &amp;#34;inconsolata&amp;#34; , &amp;#34;courier&amp;#34; , monospace , &amp;#34;pingfang sc&amp;#34; , &amp;#34;microsoft yahei&amp;#34; , sans-serif ; font-size: 14px ; background-color: rgb(250 , 250 , 250)&quot;&gt;getProviderClass&lt;/span&gt;" style="edgeStyle=orthogonalEdgeStyle;html=1;align=left;spacingLeft=2;endArrow=block;rounded=0;entryX=1;entryY=0;" edge="1" target="boVsB5EDwnH805TPusPQ-24" parent="boVsB5EDwnH805TPusPQ-18">
          <mxGeometry relative="1" as="geometry">
            <mxPoint x="95" y="120" as="sourcePoint" />
            <Array as="points">
              <mxPoint x="125" y="120" />
            </Array>
          </mxGeometry>
        </mxCell>
        <mxCell id="boVsB5EDwnH805TPusPQ-26" value="" style="html=1;points=[];perimeter=orthogonalPerimeter;" vertex="1" parent="boVsB5EDwnH805TPusPQ-18">
          <mxGeometry x="95" y="170" width="10" height="40" as="geometry" />
        </mxCell>
        <mxCell id="boVsB5EDwnH805TPusPQ-27" value="&lt;span style=&quot;color: rgb(56 , 58 , 66) ; font-family: &amp;#34;source code pro&amp;#34; , &amp;#34;dejavu sans mono&amp;#34; , &amp;#34;ubuntu mono&amp;#34; , &amp;#34;anonymous pro&amp;#34; , &amp;#34;droid sans mono&amp;#34; , &amp;#34;menlo&amp;#34; , &amp;#34;monaco&amp;#34; , &amp;#34;consolas&amp;#34; , &amp;#34;inconsolata&amp;#34; , &amp;#34;courier&amp;#34; , monospace , &amp;#34;pingfang sc&amp;#34; , &amp;#34;microsoft yahei&amp;#34; , sans-serif ; font-size: 14px ; background-color: rgb(250 , 250 , 250)&quot;&gt;getWebViewProviderClass&lt;/span&gt;" style="edgeStyle=orthogonalEdgeStyle;html=1;align=left;spacingLeft=2;endArrow=block;rounded=0;entryX=1;entryY=0;" edge="1" target="boVsB5EDwnH805TPusPQ-26" parent="boVsB5EDwnH805TPusPQ-18">
          <mxGeometry relative="1" as="geometry">
            <mxPoint x="100" y="150" as="sourcePoint" />
            <Array as="points">
              <mxPoint x="130" y="150" />
            </Array>
          </mxGeometry>
        </mxCell>
        <mxCell id="boVsB5EDwnH805TPusPQ-29" value="&lt;span style=&quot;color: rgb(56 , 58 , 66) ; font-family: &amp;#34;source code pro&amp;#34; , &amp;#34;dejavu sans mono&amp;#34; , &amp;#34;ubuntu mono&amp;#34; , &amp;#34;anonymous pro&amp;#34; , &amp;#34;droid sans mono&amp;#34; , &amp;#34;menlo&amp;#34; , &amp;#34;monaco&amp;#34; , &amp;#34;consolas&amp;#34; , &amp;#34;inconsolata&amp;#34; , &amp;#34;courier&amp;#34; , monospace , &amp;#34;pingfang sc&amp;#34; , &amp;#34;microsoft yahei&amp;#34; , sans-serif ; font-size: 14px ; text-align: left ; background-color: rgb(250 , 250 , 250)&quot;&gt;Class.forName&lt;/span&gt;" style="html=1;verticalAlign=bottom;endArrow=block;" edge="1" parent="boVsB5EDwnH805TPusPQ-18" target="boVsB5EDwnH805TPusPQ-28">
          <mxGeometry width="80" relative="1" as="geometry">
            <mxPoint x="110" y="190" as="sourcePoint" />
            <mxPoint x="190" y="190" as="targetPoint" />
          </mxGeometry>
        </mxCell>
        <mxCell id="boVsB5EDwnH805TPusPQ-28" value="&lt;span style=&quot;color: rgb(193 , 132 , 1) ; font-family: &amp;#34;source code pro&amp;#34; , &amp;#34;dejavu sans mono&amp;#34; , &amp;#34;ubuntu mono&amp;#34; , &amp;#34;anonymous pro&amp;#34; , &amp;#34;droid sans mono&amp;#34; , &amp;#34;menlo&amp;#34; , &amp;#34;monaco&amp;#34; , &amp;#34;consolas&amp;#34; , &amp;#34;inconsolata&amp;#34; , &amp;#34;courier&amp;#34; , monospace , &amp;#34;pingfang sc&amp;#34; , &amp;#34;microsoft yahei&amp;#34; , sans-serif ; font-size: 14px ; text-align: left ; background-color: rgb(250 , 250 , 250)&quot;&gt;WebViewChromiumFactoryProviderForOMR1&lt;/span&gt;" style="shape=umlLifeline;perimeter=lifelinePerimeter;whiteSpace=wrap;html=1;container=1;collapsible=0;recursiveResize=0;outlineConnect=0;" vertex="1" parent="1">
          <mxGeometry x="1000" y="40" width="100" height="300" as="geometry" />
        </mxCell>
        <mxCell id="boVsB5EDwnH805TPusPQ-30" value="create" style="html=1;verticalAlign=bottom;endArrow=open;dashed=1;endSize=8;entryX=1.3;entryY=0.965;entryDx=0;entryDy=0;entryPerimeter=0;" edge="1" parent="1" target="boVsB5EDwnH805TPusPQ-26">
          <mxGeometry relative="1" as="geometry">
            <mxPoint x="1050" y="250" as="sourcePoint" />
            <mxPoint x="970" y="250" as="targetPoint" />
          </mxGeometry>
        </mxCell>
      </root>
    </mxGraphModel>
  </diagram>
</mxfile>
